HIERARCHY
ROOT joint_Root
{
	OFFSET 0.0 0.0 0.0
	CHANNELS 6 Xposition Yposition Zposition Zrotation Xrotation Yrotation 
	JOINT Hips
	{
		OFFSET 4.5925 91.4895 -427.239
		CHANNELS 6 Xposition Yposition Zposition Zrotation Xrotation Yrotation 
		JOINT Spine
		{
			OFFSET 15.7357 0.0 0.0
			CHANNELS 6 Xposition Yposition Zposition Zrotation Xrotation Yrotation 
			JOINT Chest
			{
				OFFSET 8.98455 -0.406207 0.0
				CHANNELS 6 Xposition Yposition Zposition Zrotation Xrotation Yrotation 
				JOINT Neck
				{
					OFFSET 16.3773 0.0 0.0
					CHANNELS 6 Xposition Yposition Zposition Zrotation Xrotation Yrotation 
					JOINT Head
					{
						OFFSET 6.45672 0.0 0.0
						CHANNELS 6 Xposition Yposition Zposition Zrotation Xrotation Yrotation 
						End Site
						{
							OFFSET 0.0 0.0 0.0
						}
					}
				}
				JOINT Shoulder_L
				{
					OFFSET 12.9942 -0.242716 4.98039
					CHANNELS 6 Xposition Yposition Zposition Zrotation Xrotation Yrotation 
					JOINT UpperArm_L
					{
						OFFSET 5.34809 0.0 0.0
						CHANNELS 6 Xposition Yposition Zposition Zrotation Xrotation Yrotation 
						JOINT LowerArm_L
						{
							OFFSET 24.3286 1.87007e-05 0.0
							CHANNELS 6 Xposition Yposition Zposition Zrotation Xrotation Yrotation 
							JOINT Hand_L
							{
								OFFSET 22.2916 0.0 0.0
								CHANNELS 6 Xposition Yposition Zposition Zrotation Xrotation Yrotation 
								End Site
								{
									OFFSET 0.0 0.0 0.0
								}
							}
						}
					}
				}
				JOINT Shoulder_R
				{
					OFFSET 12.9945 -0.242716 -4.98039
					CHANNELS 6 Xposition Yposition Zposition Zrotation Xrotation Yrotation 
					JOINT UpperArm_R
					{
						OFFSET -5.34813 0.0 0.0
						CHANNELS 6 Xposition Yposition Zposition Zrotation Xrotation Yrotation 
						JOINT LowerArm_R
						{
							OFFSET -24.3289 0.000322201 0.0
							CHANNELS 6 Xposition Yposition Zposition Zrotation Xrotation Yrotation 
							JOINT Hand_R
							{
								OFFSET -22.2915 -0.000108084 0.0
								CHANNELS 6 Xposition Yposition Zposition Zrotation Xrotation Yrotation 
								End Site
								{
									OFFSET 0.0 0.0 0.0
								}
							}
						}
					}
				}
			}
		}
		JOINT UpperLeg_L
		{
			OFFSET -2.19248 -6.46944 0.0
			CHANNELS 6 Xposition Yposition Zposition Zrotation Xrotation Yrotation 
			JOINT LowerLeg_L
			{
				OFFSET 39.0811 0.0 -1.23785e-05
				CHANNELS 6 Xposition Yposition Zposition Zrotation Xrotation Yrotation 
				JOINT Foot_L
				{
					OFFSET 40.9854 0.0 -1.26872e-05
					CHANNELS 6 Xposition Yposition Zposition Zrotation Xrotation Yrotation 
					JOINT Toes_L
					{
						OFFSET 11.7543 0.0 0.0
						CHANNELS 6 Xposition Yposition Zposition Zrotation Xrotation Yrotation 
						End Site
						{
							OFFSET 0.0 0.0 0.0
						}
					}
				}
			}
		}
		JOINT UpperLeg_R
		{
			OFFSET -2.19251 6.46944 0.0
			CHANNELS 6 Xposition Yposition Zposition Zrotation Xrotation Yrotation 
			JOINT LowerLeg_R
			{
				OFFSET -39.0811 -0.00228153 -0.0401928
				CHANNELS 6 Xposition Yposition Zposition Zrotation Xrotation Yrotation 
				JOINT Foot_R
				{
					OFFSET -40.9854 0.0 0.0
					CHANNELS 6 Xposition Yposition Zposition Zrotation Xrotation Yrotation 
					JOINT Toes_R
					{
						OFFSET -11.7543 0.0 0.0
						CHANNELS 6 Xposition Yposition Zposition Zrotation Xrotation Yrotation 
						End Site
						{
							OFFSET 0.0 0.0 0.0
						}
					}
				}
			}
		}
	}
}
MOTION
Frames:	8
Frame Time:	0.0333333
0.000000 0.000000 0.000000 0.000000 0.000000 -0.000000 -2.324180 90.344900 0.141154 89.894900 -1.600950 10.771900 15.735700 0.000005 -0.000001 87.869000 78.559600 -88.175100 8.984550 -0.406207 -0.000000 15.097800 -0.859076 -0.498928 16.377300 -0.000001 -0.000001 6.062580 -4.122580 1.644060 6.456720 -0.000001 -0.000000 -5.189530 -3.640550 0.295412 12.994200 -0.242716 4.980390 -91.301800 6.090710 -77.911500 5.348090 -0.000007 -0.000001 -54.098700 42.119900 -29.479500 24.328600 0.000019 0.000005 6.997850 19.162400 -20.502900 22.291600 -0.000001 0.000005 10.680300 5.312830 -0.290350 12.994500 -0.242716 -4.980390 89.220200 10.852500 -85.865100 -5.348130 -0.000001 -0.000004 -59.930400 30.642000 -21.109100 -24.328900 0.000322 -0.000009 3.152330 7.682540 -22.396900 -22.291500 -0.000108 -0.000004 16.052700 5.409340 -3.243580 -2.192480 -6.469440 -0.000000 -174.616000 -10.561400 -0.597835 39.081100 -0.000007 -0.000012 -0.218826 0.339219 32.825900 40.985400 -0.000006 -0.000013 -0.294253 5.290500 -71.226300 11.754300 -0.000000 0.000003 -0.000133 -0.001315 -16.627700 -2.192510 6.469440 -0.000001 173.910000 21.630400 -179.279000 -39.081100 -0.002282 -0.040193 -0.197241 0.310831 32.828900 -40.985400 0.000008 0.000006 4.433450 11.531400 -72.451100 -11.754300 -0.000006 -0.000006 -0.003321 -0.044184 -18.370100
0.000000 0.000000 0.000000 0.000000 0.000000 -0.000000 -2.303080 90.343700 0.097265 89.881900 -1.646820 10.771700 15.735700 0.000005 -0.000001 87.816800 78.520400 -88.153600 8.984550 -0.406207 -0.000000 15.175200 -0.884615 -0.556212 16.377300 -0.000001 -0.000001 6.021770 -4.123770 1.489750 6.456720 -0.000001 -0.000000 -5.225020 -3.614920 0.205864 12.994200 -0.242716 4.980390 -91.313500 6.147340 -77.914400 5.348090 -0.000007 -0.000001 -54.029800 42.052800 -29.471400 24.328600 0.000019 0.000005 7.021530 19.180000 -20.550500 22.291600 -0.000001 0.000005 10.754100 5.313290 -0.303543 12.994500 -0.242716 -4.980390 89.181700 10.962400 -85.704400 -5.348130 -0.000001 -0.000004 -60.378800 29.146200 -20.683200 -24.328900 0.000322 -0.000009 3.275120 7.468490 -23.769200 -22.291500 -0.000108 -0.000004 16.748300 5.413820 -3.391550 -2.192480 -6.469440 -0.000000 -174.613000 -10.589700 -0.634114 39.081100 -0.000007 -0.000012 -0.218611 0.338493 32.856300 40.985400 -0.000006 -0.000013 -0.281659 5.281520 -71.220300 11.754300 -0.000000 0.000003 -0.000135 -0.001324 -16.628000 -2.192510 6.469440 -0.000001 173.936000 21.568300 -179.339000 -39.081100 -0.002282 -0.040193 -0.201893 0.317715 32.855700 -40.985400 0.000008 0.000006 4.446300 11.512600 -72.427400 -11.754300 -0.000006 -0.000006 -0.003534 -0.046503 -18.464500
0.000000 0.000000 0.000000 0.000000 0.000000 -0.000000 -2.270520 90.345900 0.042717 89.889400 -1.696170 10.816700 15.735700 0.000005 -0.000001 87.723600 78.471400 -88.101100 8.984550 -0.406207 -0.000000 15.271500 -0.928084 -0.631117 16.377300 -0.000001 -0.000001 5.968040 -4.124670 1.334730 6.456720 -0.000001 -0.000000 -5.290460 -3.568150 0.050231 12.994200 -0.242716 4.980390 -91.330700 6.224630 -77.908000 5.348090 -0.000007 -0.000001 -53.855000 42.077900 -29.504000 24.328600 0.000019 0.000005 7.016590 19.162700 -20.553500 22.291600 -0.000001 0.000005 10.807800 5.313430 -0.307569 12.994500 -0.242716 -4.980390 89.143100 11.021700 -85.526500 -5.348130 -0.000001 -0.000004 -60.812500 27.474900 -20.294600 -24.328900 0.000322 -0.000009 3.218470 6.790230 -25.443600 -22.291500 -0.000108 -0.000004 17.508700 5.420270 -3.606950 -2.192480 -6.469440 -0.000000 -174.624000 -10.659400 -0.627619 39.081100 -0.000007 -0.000012 -0.219094 0.339087 32.868100 40.985400 -0.000006 -0.000013 -0.254626 5.284390 -71.192000 11.754300 -0.000000 0.000003 -0.000143 -0.001398 -16.630800 -2.192510 6.469440 -0.000001 173.918000 21.504600 -179.347000 -39.081100 -0.002282 -0.040193 -0.200648 0.315710 32.862000 -40.985400 0.000008 0.000006 4.342850 11.518100 -72.361100 -11.754300 -0.000006 -0.000006 -0.003343 -0.044420 -18.379700
0.000000 0.000000 0.000000 0.000000 0.000000 -0.000000 -2.241490 90.345400 -0.015942 89.877600 -1.733740 10.857000 15.735700 0.000005 -0.000001 87.596300 78.424500 -88.007800 8.984550 -0.406207 -0.000000 15.362800 -0.984873 -0.690985 16.377300 -0.000001 -0.000001 5.923970 -4.129810 1.215940 6.456720 -0.000001 -0.000000 -5.375580 -3.507640 -0.195455 12.994200 -0.242716 4.980390 -91.348800 6.318870 -77.924600 5.348090 -0.000007 -0.000001 -53.766800 41.986900 -29.470000 24.328600 0.000019 0.000005 7.073470 19.343800 -20.536600 22.291600 -0.000001 0.000005 10.766500 5.309870 -0.205942 12.994500 -0.242716 -4.980390 89.108900 10.994300 -85.337200 -5.348130 -0.000001 -0.000004 -61.186700 25.751900 -20.025800 -24.328900 0.000322 -0.000009 3.204100 6.200210 -27.407200 -22.291500 -0.000108 -0.000004 18.132400 5.427780 -3.863260 -2.192480 -6.469440 -0.000000 -174.633000 -10.674800 -0.640163 39.081100 -0.000007 -0.000012 -0.218244 0.337309 32.903800 40.985400 -0.000006 -0.000013 -0.233691 5.256730 -71.177300 11.754300 -0.000000 0.000003 -0.000135 -0.001332 -16.628300 -2.192510 6.469440 -0.000001 173.913000 21.479500 -179.376000 -39.081100 -0.002282 -0.040193 -0.205122 0.322315 32.888000 -40.985400 0.000008 0.000006 4.328320 11.546300 -72.314800 -11.754300 -0.000006 -0.000006 -0.003475 -0.045868 -18.438700
0.000000 0.000000 0.000000 0.000000 0.000000 -0.000000 -2.206690 90.353200 -0.076839 89.863300 -1.817580 10.916300 15.735700 0.000005 -0.000001 87.527800 78.379800 -87.983800 8.984550 -0.406207 -0.000000 15.450500 -1.019070 -0.774585 16.377300 -0.000001 -0.000001 5.907230 -4.139830 1.096630 6.456720 -0.000001 -0.000000 -5.488460 -3.457090 -0.380585 12.994200 -0.242716 4.980390 -91.370500 6.406900 -77.898800 5.348090 -0.000007 -0.000001 -53.661500 41.932000 -29.457000 24.328600 0.000019 0.000005 7.054030 19.388400 -20.442800 22.291600 -0.000001 0.000005 10.770900 5.310840 -0.233883 12.994500 -0.242716 -4.980390 89.075900 10.965400 -85.152900 -5.348130 -0.000001 -0.000004 -61.368100 24.135700 -19.864500 -24.328900 0.000322 -0.000009 3.382750 5.934410 -29.763700 -22.291500 -0.000108 -0.000004 19.097100 5.431770 -3.999460 -2.192480 -6.469440 -0.000000 -174.638000 -10.707400 -0.605920 39.081100 -0.000007 -0.000012 -0.213970 0.330787 32.897200 40.985400 -0.000006 -0.000013 -0.219712 5.204170 -71.145700 11.754300 -0.000000 0.000003 -0.000139 -0.001363 -16.629500 -2.192510 6.469440 -0.000001 173.913000 21.422900 -179.363000 -39.081100 -0.002282 -0.040193 -0.200146 0.314822 32.871200 -40.985400 0.000008 0.000006 4.328160 11.582900 -72.255200 -11.754300 -0.000006 -0.000006 -0.003120 -0.041956 -18.279400
0.000000 0.000000 0.000000 0.000000 0.000000 -0.000000 -2.177850 90.353000 -0.141465 89.836500 -1.902800 10.963300 15.735700 0.000005 -0.000001 87.462700 78.341500 -87.970200 8.984550 -0.406207 -0.000000 15.525400 -1.052100 -0.872626 16.377300 -0.000001 -0.000001 5.836140 -4.153010 1.012880 6.456720 -0.000001 -0.000000 -5.555700 -3.387120 -0.545577 12.994200 -0.242716 4.980390 -91.383600 6.456560 -77.878000 5.348090 -0.000007 -0.000001 -53.642600 41.809300 -29.369100 24.328600 0.000019 0.000005 7.024980 19.314600 -20.433400 22.291600 -0.000001 0.000005 10.711200 5.309920 -0.207658 12.994500 -0.242716 -4.980390 89.038200 10.983900 -84.964500 -5.348130 -0.000001 -0.000004 -61.352200 22.536500 -19.810300 -24.328900 0.000322 -0.000009 3.936370 6.210740 -32.463300 -22.291500 -0.000108 -0.000004 19.909500 5.433120 -4.046510 -2.192480 -6.469440 -0.000000 -174.615000 -10.770100 -0.620620 39.081100 -0.000007 -0.000012 -0.214106 0.330415 32.943300 40.985400 -0.000006 -0.000013 -0.197223 5.194690 -71.127200 11.754300 -0.000000 0.000003 -0.000145 -0.001411 -16.631200 -2.192510 6.469440 -0.000001 173.927000 21.372700 -179.379000 -39.081100 -0.002282 -0.040193 -0.202292 0.317917 32.889800 -40.985400 0.000008 0.000006 4.343610 11.615000 -72.215600 -11.754300 -0.000006 -0.000006 -0.003438 -0.045466 -18.422300
0.000000 0.000000 0.000000 0.000000 0.000000 -0.000000 -2.140150 90.356800 -0.218045 89.808400 -1.956240 11.006900 15.735700 0.000005 -0.000001 87.351300 78.311200 -87.904200 8.984550 -0.406207 -0.000000 15.583500 -1.102750 -0.956061 16.377300 -0.000001 -0.000001 5.784820 -4.153790 0.871804 6.456720 -0.000001 -0.000000 -5.611840 -3.366440 -0.660530 12.994200 -0.242716 4.980390 -91.399500 6.535720 -77.886200 5.348090 -0.000007 -0.000001 -53.612700 41.712800 -29.246900 24.328600 0.000019 0.000005 7.071970 19.426500 -20.455500 22.291600 -0.000001 0.000005 10.763900 5.309760 -0.202924 12.994500 -0.242716 -4.980390 89.004600 11.021900 -84.807100 -5.348130 -0.000001 -0.000004 -61.280600 20.752900 -19.816200 -24.328900 0.000322 -0.000009 4.710830 6.672030 -35.350500 -22.291500 -0.000108 -0.000004 20.769200 5.434820 -4.104410 -2.192480 -6.469440 -0.000000 -174.606000 -10.796400 -0.638515 39.081100 -0.000007 -0.000012 -0.216493 0.333718 32.973100 40.985400 -0.000006 -0.000013 -0.183314 5.140610 -71.095600 11.754300 -0.000000 0.000003 -0.000142 -0.001390 -16.630500 -2.192510 6.469440 -0.000001 173.929000 21.367500 -179.395000 -39.081100 -0.002282 -0.040193 -0.203894 0.320478 32.883000 -40.985400 0.000008 0.000006 4.292380 11.688600 -72.135000 -11.754300 -0.000006 -0.000006 -0.003529 -0.046444 -18.462100
0.000000 0.000000 0.000000 0.000000 0.000000 -0.000000 -2.111640 90.357700 -0.285559 89.770600 -2.069630 11.072200 15.735700 0.000005 -0.000001 87.360500 78.277000 -87.953100 8.984550 -0.406207 -0.000000 15.651600 -1.105070 -1.034530 16.377300 -0.000001 -0.000001 5.737220 -4.172510 0.801705 6.456720 -0.000001 -0.000000 -5.710740 -3.336950 -0.881561 12.994200 -0.242716 4.980390 -91.417600 6.601370 -77.851500 5.348090 -0.000007 -0.000001 -53.521800 41.682900 -29.225100 24.328600 0.000019 0.000005 7.065040 19.400000 -20.461600 22.291600 -0.000001 0.000005 10.821300 5.308970 -0.180555 12.994500 -0.242716 -4.980390 88.975800 11.000300 -84.647300 -5.348130 -0.000001 -0.000004 -61.336900 18.775000 -19.894700 -24.328900 0.000322 -0.000009 5.462660 6.949890 -38.323700 -22.291500 -0.000108 -0.000004 21.732700 5.437150 -4.186830 -2.192480 -6.469440 -0.000000 -174.579000 -10.845100 -0.624318 39.081100 -0.000007 -0.000012 -0.212454 0.326960 33.015600 40.985400 -0.000006 -0.000013 -0.167749 5.092960 -71.084200 11.754300 -0.000000 0.000003 -0.000130 -0.001289 -16.626700 -2.192510 6.469440 -0.000001 173.935000 21.333400 -179.384000 -39.081100 -0.002282 -0.040193 -0.205814 0.323514 32.877600 -40.985400 0.000008 0.000006 4.230990 11.785600 -72.059200 -11.754300 -0.000006 -0.000006 -0.003559 -0.046773 -18.475500
